PathFileType	4	(X/Y/Z)	OpenSim_Sub01_CSStiffKnee_Accel.trc
DataRate	CameraRate	NumFrames	NumMarkers	Units	OrigDataRate	OrigDataStartFrame	OrigNumFrames
100	100	24	8	m	100	1	5381
Frame#	Time	torso_imu_offset_imu	pelvis_imu_offset_imu	tibia_r_imu_offset_imu	femur_r_imu_offset_imu	tibia_l_imu_offset_imu	femur_l_imu_offset_imu	toes_r_imu_offset_imu	toes_l_imu_offset_imu
				X1	Y1	Z1	X2	Y2	Z2	X3	Y3	Z3	X4	Y4	Z4	X5	Y5	Z5	X6	Y6	Z6	X7	Y7	Z7	X8		Y8	Z8	

1	0	9.13027639	-0.83695565	6.13574823	9.57505487	0.20186816	2.62783003	9.75686481	1.56792732	1.20820625	9.70305982	1.17611756	1.18371533	9.51279852	-2.28841659	0.76793789	9.77773217	0.00958025	-0.73450397	5.52393374	-1.83994163	8.11938330	5.54562708	1.13857342	10.74032796
2	0.01000000	9.14134008	-0.84055375	6.14504048	9.58079943	0.21095594	2.62412130	9.77368469	1.56071699	1.21419380	9.71906020	1.20293913	1.17902165	9.50919470	-2.29288470	0.76508832	9.76853053	0.04327013	-0.74548270	5.52605094	-1.83787290	8.12332070	5.54978884	1.14232534	10.74139620
3	0.02000000	9.15371988	-0.85291917	6.14665293	9.58077592	0.22465397	2.62569760	9.77796790	1.53834482	1.22307961	9.72486285	1.20366525	1.17788934	9.51000598	-2.28327516	0.76417790	9.76274939	0.04753748	-0.73569873	5.53095324	-1.83406912	8.11825414	5.55047693	1.15082924	10.73588642
4	0.03000000	9.16423703	-0.86262117	6.14049063	9.57897410	0.23585554	2.62497245	9.76943217	1.51798481	1.22914032	9.71788389	1.18363046	1.17449691	9.51611200	-2.26572873	0.76992349	9.76242521	0.03053529	-0.71427332	5.53522216	-1.83257506	8.10753049	5.54729815	1.15800490	10.72946752
5	0.04000000	9.16998351	-0.85815201	6.12802235	9.58020297	0.23725601	2.61421312	9.74946035	1.51711571	1.22693995	9.69699015	1.15098732	1.16283696	9.52765507	-2.24757019	0.78615578	9.76903475	0.00451675	-0.69300421	5.53544918	-1.83715774	8.09562928	5.54051864	1.15756101	10.72830647
6	0.05000000	9.17068984	-0.84457703	6.11578819	9.58545484	0.23040068	2.59901956	9.72775558	1.53072189	1.21690952	9.67212344	1.11785608	1.14763003	9.54005096	-2.23675724	0.80508895	9.78128177	-0.01592229	-0.67977951	5.53110916	-1.84532867	8.08785546	5.53242507	1.15073623	10.73301369
7	0.06000000	9.16764678	-0.83670034	6.11329012	9.59346639	0.22204435	2.59281826	9.71889178	1.54055522	1.20294609	9.65971990	1.09866639	1.13990266	9.54594398	-2.24157905	0.81212443	9.79622685	-0.01485012	-0.68015400	5.52339151	-1.85092001	8.08997231	5.52649541	1.14320367	10.74091686
8	0.07000000	9.16292888	-0.84129865	6.12372653	9.60210679	0.21655712	2.60086750	9.72951531	1.53624936	1.19000460	9.66796140	1.10123149	1.14589418	9.54154167	-2.26143223	0.80113600	9.80936342	0.01389396	-0.69396403	5.51637868	-1.85006740	8.10167574	5.52607900	1.13903376	10.74831010
9	0.08000000	9.16031468	-0.84695659	6.13614535	9.60737445	0.21283814	2.60997431	9.74844356	1.52540594	1.18530050	9.68642511	1.11853493	1.16098061	9.53108204	-2.27586211	0.78509802	9.81273559	0.05463043	-0.70835374	5.52055879	-1.84415216	8.10911046	5.53420383	1.13859311	10.74927597
10	0.09000000	9.16309172	-0.84137044	6.13897111	9.60556778	0.20938408	2.60626331	9.76289981	1.51743964	1.19512161	9.70273039	1.14136530	1.17879808	9.51975823	-2.26459507	0.77812271	9.79923062	0.08982051	-0.71017917	5.54388578	-1.83586180	8.09934651	5.55228818	1.14184906	10.73905482
11	0.10000000	9.16709866	-0.82847755	6.13395830	9.59869465	0.20817907	2.59458740	9.76855496	1.51538365	1.21302167	9.71027304	1.15856586	1.19019593	9.51140634	-2.23695585	0.77938859	9.77525850	0.11323901	-0.70105094	5.55920384	-1.83404078	8.08793538	5.56558147	1.14982107	10.72792858
12	0.11000000	9.16381000	-0.82176009	6.13070501	9.59212096	0.21324602	2.59080587	9.76606413	1.51850631	1.22506252	9.70588006	1.15787823	1.18442459	9.50906000	-2.21964363	0.77928899	9.75518839	0.12533459	-0.69126324	5.51896028	-1.85106456	8.10703580	5.54993395	1.16411197	10.73494959
13	0.12000000	9.15105690	-0.82708234	6.13459409	9.58907545	0.22468900	2.60193900	9.75628485	1.52600888	1.22155632	9.69137362	1.13678426	1.16030031	9.51533471	-2.22113504	0.77338341	9.74957556	0.12652487	-0.68681014	5.44231235	-1.87788540	8.14761675	5.51067242	1.17843098	10.75738773
14	0.13000000	9.14097984	-0.83303583	6.14137689	9.58792146	0.23380934	2.61496756	9.74038235	1.53705137	1.20251485	9.67962263	1.11453060	1.13802936	9.53193622	-2.20874617	0.76901176	9.76023592	0.11696581	-0.68384051	5.49785333	-1.85755280	8.10826285	5.51916484	1.16885770	10.74365731
15	0.14000000	9.14578924	-0.82738160	6.14597438	9.58616535	0.23180114	2.61526125	9.71998619	1.55483452	1.17087717	9.68260510	1.11120353	1.13822380	9.55863544	-2.15472143	0.77431257	9.78616864	0.09720290	-0.67812597	5.84094305	-1.73826664	7.89526162	5.64565076	1.11308271	10.64363063
16	0.15000000	9.15842986	-0.81343477	6.14818908	9.57926300	0.22104805	2.59954986	9.70108938	1.62433118	1.14625328	9.68767146	1.12515507	1.15580610	9.57649968	-2.13967839	0.78921334	9.80950139	0.07216833	-0.67529589	6.28158403	-1.58831071	7.62346965	5.85647074	1.03005385	10.49047516
17	0.16000000	9.16051865	-0.80365863	6.15069350	9.56149774	0.21052040	2.57127101	9.69222758	1.81475625	1.15797669	9.66775077	1.14198447	1.17058694	9.55566024	-2.30757339	0.80878777	9.80248236	0.04936091	-0.68675490	6.42709838	-1.54642611	7.53015029	6.05673861	0.96299948	10.36638437
18	0.17000000	9.14156250	-0.80472652	6.15410625	9.53501658	0.20619055	2.53521419	9.69529026	2.11057702	1.21188415	9.61839059	1.16181247	1.17144795	9.48691609	-2.67692765	0.82598263	9.75287030	0.03179250	-0.71544518	6.10729205	-1.67049863	7.71893800	6.16521538	0.94294738	10.33007796
19	0.18000000	9.10899951	-0.81012890	6.15438026	9.51954624	0.20715166	2.49899183	9.69726411	2.30646702	1.26110439	9.58602229	1.21752892	1.16794623	9.40749656	-2.98455641	0.82913886	9.68331716	0.01238929	-0.74526033	5.65423715	-1.83597229	7.99177540	6.13287814	0.97300232	10.38648558
20	0.19000000	9.07308129	-0.81204654	6.14771627	9.53482989	0.21168329	2.47051660	9.68510524	2.19959062	1.25775787	9.61701713	1.33906304	1.17191507	9.35852495	-2.96183666	0.80869553	9.62184379	-0.01769496	-0.75922227	5.43514560	-1.90642150	8.12910010	5.92836534	1.04946540	10.52756442
21	0.20000000	9.04805755	-0.80755370	6.13939004	9.57622418	0.21927504	2.45685777	9.66627106	1.87794076	1.21718151	9.68604865	1.48000595	1.18980559	9.35646780	-2.67750507	0.78318554	9.60315698	-0.07151654	-0.75796188	5.47840728	-1.87772772	8.11075970	5.65764276	1.13740356	10.68648583
22	0.21000000	9.05049783	-0.79662601	6.14004350	9.62472030	0.23012028	2.46454486	9.66025952	1.60060608	1.19188261	9.72564226	1.54912105	1.22484060	9.40316459	-2.39886773	0.78760654	9.66569747	-0.16446523	-0.75247724	5.61276332	-1.82370897	8.03411607	5.50724375	1.18358495	10.76200443
23	0.22000000	9.08875411	-0.78234167	6.16300554	9.66562809	0.24228461	2.49115976	9.67524471	1.52765902	1.20857349	9.69951153	1.49861416	1.26894476	9.48311873	-2.29942180	0.83404256	9.80334421	-0.28012268	-0.74940810	5.71484567	-1.79427961	7.97114247	5.56972837	1.16159921	10.70833965
24	0.23000000	9.15277596	-0.77461787	6.22744572	9.69430786	0.24906579	2.51433539	9.69378702	1.59330606	1.23533903	9.64217458	1.37891566	1.28892652	9.54257411	-2.33762495	0.88297640	9.91043934	-0.33103073	-0.74537068	5.77390117	-1.78377091	7.93377443	5.72565367	1.10540977	10.60446032
